<svg version="1.0" xmlns="http://www.w3.org/2000/svg" width="700.000000pt" height="700.000000pt" viewBox="0 0 700.000000 700.000000" preserveAspectRatio="xMidYMid meet">
<g transform="translate(0.000000,700.000000) scale(0.100000,-0.100000)">
<path d="M970 6777 c-19 -6 -58 -34 -86 -62 -71 -68 -84 -115 -84 -301 l0
-141 -137 -6 c-223 -8 -351 -57 -477 -183 -70 -70 -127 -161 -159 -254 l-22
-65 -3 -2325 c-2 -1705 0 -2343 9 -2394 29 -174 165 -354 330 -435 150 -74 80
-71 1457 -71 l1232 0 0 478 0 478 -31 30 c-86 81 -165 231 -189 362 -13 74
-13 820 0 895 6 31 17 69 25 84 8 16 15 34 15 41 0 7 16 44 35 82 24 48 35 83
35 114 0 56 25 186 43 228 8 18 20 49 28 68 48 131 143 281 249 393 44 47 80
87 80 90 0 2 -18 32 -40 64 -48 73 -64 139 -58 249 8 144 73 245 198 303 50
24 68 26 204 29 133 3 157 1 219 -19 117 -38 207 -143 223 -263 l7 -46 191 0
c105 0 208 -3 229 -6 l37 -7 0 36 c0 114 101 244 221 285 61 21 81 23 215 20
125 -3 158 -7 205 -26 79 -32 132 -81 171 -160 31 -63 33 -72 33 -177 0 -98
-3 -116 -26 -166 -32 -67 -88 -132 -129 -149 -36 -15 -37 -20 -7 -48 33 -31
47 -28 97 23 24 25 48 45 53 45 5 0 34 22 65 48 117 101 250 175 387 217 44
14 89 29 100 34 11 5 28 12 38 15 16 5 17 51 17 774 0 736 -1 772 -20 847 -27
104 -78 193 -159 275 -121 122 -259 178 -464 189 l-122 6 -5 175 c-6 195 -10
211 -78 272 -136 123 -346 71 -407 -101 -11 -32 -15 -85 -15 -197 l0 -154
-727 2 -728 3 -5 175 c-6 195 -10 211 -78 272 -136 123 -346 71 -407 -101 -11
-32 -15 -85 -15 -197 l0 -154 -714 0 -714 0 -4 168 c-3 163 -4 168 -32 220
-61 110 -184 158 -306 119z m-186 -853 c10 -4 16 -18 16 -38 0 -92 62 -196
144 -239 54 -28 165 -30 216 -3 88 46 140 124 148 223 l5 63 711 -2 711 -3 7
-61 c19 -171 164 -276 319 -230 104 30 179 125 179 227 0 27 6 51 14 58 9 8
208 10 727 9 l714 -3 7 -62 c8 -70 27 -114 72 -161 65 -70 156 -95 247 -68
103 30 179 126 179 227 0 25 5 50 12 57 20 20 137 14 208 -10 77 -26 153 -91
184 -158 20 -42 21 -65 24 -333 l3 -287 -2633 2 -2633 3 -3 264 c-2 249 -1
266 19 323 12 32 34 74 48 93 14 18 31 41 36 50 18 29 141 64 227 65 42 0 83
-3 92 -6z m464 -1421 c81 -32 136 -83 174 -161 32 -64 33 -71 33 -187 0 -116
-1 -123 -33 -187 -36 -73 -82 -119 -159 -158 -44 -23 -62 -25 -215 -28 -189
-4 -243 6 -324 60 -54 37 -108 110 -126 171 -7 23 -13 87 -13 142 0 125 20
186 81 254 92 102 155 122 374 118 129 -3 164 -7 208 -24z m1317 -6 c73 -34
128 -85 163 -152 23 -44 27 -65 30 -166 5 -142 -10 -205 -68 -277 -28 -36 -58
-60 -107 -84 l-68 -33 -175 0 -175 0 -67 33 c-120 59 -178 155 -186 308 -6
125 19 211 83 282 92 102 156 123 365 119 134 -2 149 -5 205 -30z m-1337
-1292 c78 -23 150 -87 192 -170 34 -66 35 -71 34 -179 0 -94 -4 -118 -23 -160
-31 -65 -101 -139 -159 -168 -44 -22 -59 -23 -242 -23 -184 0 -198 1 -242 23
-56 28 -122 99 -151 162 -30 64 -36 229 -12 302 33 102 104 173 208 209 70 25
318 27 395 4z m1355 -23 c131 -65 182 -166 175 -346 -3 -85 -8 -110 -30 -156
-34 -70 -98 -131 -167 -159 -51 -22 -65 -23 -240 -19 -206 5 -226 11 -299 80
-166 160 -142 475 45 585 84 49 107 53 283 50 165 -2 166 -2 233 -35z m-1312
-1290 c62 -31 124 -94 157 -161 24 -51 27 -66 27 -166 0 -98 -3 -116 -26 -166
-36 -76 -88 -131 -157 -165 -57 -29 -58 -29 -247 -29 -188 0 -191 0 -234 27
-138 83 -186 180 -179 355 4 122 34 191 109 256 77 67 123 77 329 74 159 -2
179 -4 221 -25z m1278 11 c78 -25 160 -105 191 -188 19 -52 21 -75 18 -170 -3
-85 -9 -121 -25 -156 -25 -56 -81 -115 -149 -154 l-49 -30 -191 0 c-190 0
-191 0 -248 29 -153 77 -224 274 -165 459 19 61 32 81 83 132 84 84 117 94
320 94 125 1 171 -3 215 -16z"></path>
<path d="M4064 3481 c-226 -62 -399 -231 -435 -426 -13 -70 -6 -173 16 -236
19 -53 15 -64 -23 -72 -37 -8 -96 -57 -111 -94 -8 -20 -11 -122 -9 -333 l3
-305 30 -4 c17 -2 369 0 782 4 l753 7 2 207 3 206 175 0 175 0 3 -206 2 -206
563 -6 c309 -4 662 -7 785 -7 l222 0 0 310 c0 334 -1 339 -53 388 -14 13 -42
30 -64 37 -43 15 -43 13 -17 132 36 163 -11 309 -142 441 -58 59 -90 81 -166
116 -141 67 -264 82 -423 51 -159 -30 -184 -48 -677 -477 -86 -75 -168 -144
-182 -153 -33 -22 -32 -23 -234 153 -473 412 -477 415 -604 459 -101 35 -273
42 -374 14z m273 -327 c41 -19 453 -371 453 -387 0 -5 -143 -7 -317 -5 l-318
3 -50 26 c-72 36 -115 102 -115 178 0 62 16 96 71 149 63 61 185 77 276 36z
m2044 1 c43 -22 96 -72 115 -107 8 -15 14 -51 14 -81 0 -73 -37 -132 -111
-172 l-54 -30 -319 -3 c-200 -2 -317 1 -315 7 4 10 50 51 273 246 168 146 211
169 307 161 31 -2 71 -12 90 -21z"></path>
<path d="M3747 1693 c-4 -3 -7 -357 -7 -785 0 -651 2 -783 14 -806 16 -31 61
-74 93 -91 15 -8 198 -11 622 -11 l601 0 0 724 c0 399 -4 727 -9 730 -4 3 -75
-53 -156 -124 -81 -71 -163 -136 -181 -145 -74 -35 -186 -4 -231 64 -26 39
-30 98 -9 139 13 26 113 120 254 241 34 30 62 58 62 62 0 10 -1043 12 -1053 2z"></path>
<path d="M5700 1692 c0 -5 66 -66 146 -137 81 -71 155 -142 165 -159 26 -43
24 -105 -4 -147 -28 -43 -98 -79 -155 -79 -69 0 -90 14 -305 202 -55 48 -104
85 -109 82 -4 -3 -8 -331 -8 -730 l0 -724 600 0 c505 0 605 2 629 14 35 19 89
79 96 109 3 12 4 371 3 797 l-3 775 -527 3 c-291 1 -528 -2 -528 -6z"></path>
</g>
</svg>