<svg version="1.0" xmlns="http://www.w3.org/2000/svg" width="700.000000pt" height="700.000000pt" viewBox="0 0 700.000000 700.000000" preserveAspectRatio="xMidYMid meet">
<g transform="translate(0.000000,700.000000) scale(0.100000,-0.100000)">
<path d="M1125 6994 c-24 -6 -46 -15 -107 -43 -33 -16 -52 -33 -67 -62 -20
-39 -21 -53 -21 -510 0 -536 -3 -517 80 -568 61 -38 151 -55 244 -48 91 7 139
27 194 80 l42 41 0 498 0 497 -42 41 c-24 22 -54 44 -68 47 -14 3 -31 10 -38
16 -13 11 -184 19 -217 11z"></path>
<path d="M4895 6994 c-74 -19 -150 -64 -173 -105 -22 -38 -22 -42 -22 -509 0
-564 -9 -524 128 -591 82 -39 270 -35 341 9 14 8 41 31 59 49 l32 34 0 499 0
499 -42 41 c-24 22 -54 44 -68 47 -14 3 -31 10 -38 16 -13 11 -184 19 -217 11z"></path>
<path d="M33 6340 l-33 -30 0 -635 0 -635 3074 0 c2600 0 3075 2 3085 14 8 10
11 181 9 640 l-3 625 -23 23 c-21 22 -32 23 -182 26 l-160 3 0 -255 c0 -159
-4 -257 -10 -261 -6 -3 -10 -16 -10 -29 0 -29 -40 -105 -72 -137 -69 -68 -208
-157 -248 -159 -8 0 -33 -9 -55 -20 -22 -11 -49 -19 -60 -20 -12 0 -25 -4 -31
-10 -5 -5 -39 -13 -74 -16 -36 -4 -70 -11 -77 -16 -16 -13 -370 -13 -386 0 -7
5 -37 13 -67 16 -53 7 -154 36 -167 50 -3 3 -13 6 -21 6 -20 0 -111 43 -170
81 -52 33 -152 126 -152 141 0 6 -9 21 -20 35 -19 24 -20 41 -20 309 l0 284
-1060 0 -1060 0 0 -246 c0 -307 -6 -328 -116 -440 -38 -39 -81 -77 -95 -85
-91 -50 -231 -109 -260 -109 -8 0 -19 -4 -25 -10 -5 -5 -39 -13 -74 -16 -36
-4 -70 -11 -77 -16 -16 -13 -370 -13 -386 0 -7 5 -41 13 -77 17 -35 4 -71 11
-80 15 -8 5 -37 16 -65 25 -69 24 -147 61 -203 96 -52 33 -152 126 -152 141 0
6 -9 21 -20 35 -11 14 -20 36 -20 49 0 12 -4 26 -10 29 -6 4 -10 102 -10 261
l0 254 -152 0 -153 -1 -32 -29z"></path>
<path d="M55 4782 c-11 -9 -28 -28 -38 -42 -16 -23 -17 -160 -17 -2213 0
-1994 1 -2192 16 -2223 9 -19 23 -34 30 -34 8 0 17 -7 20 -15 5 -13 214 -15
1790 -15 l1784 0 0 563 c0 551 0 564 -20 582 -11 10 -20 22 -20 28 0 5 -13 26
-28 46 -16 20 -34 52 -41 71 -37 101 -51 104 -51 10 l0 -70 -395 0 -395 0 0
365 0 365 384 0 384 0 3 190 c3 134 8 193 17 202 6 6 12 24 12 38 0 14 6 34
13 45 19 28 37 96 37 138 0 20 4 38 9 41 4 3 12 38 16 78 3 40 10 78 15 83 4
6 11 28 15 49 3 22 13 49 21 60 8 11 14 27 14 36 0 19 85 185 116 227 13 17
24 35 24 40 0 16 235 242 289 277 29 20 55 36 58 36 2 0 23 13 46 29 23 15 53
31 67 35 25 7 76 29 115 49 11 6 36 13 55 16 35 6 35 7 40 66 l5 60 398 3 397
2 0 -89 c0 -99 1 -100 90 -144 43 -21 65 -34 111 -69 20 -16 41 -28 45 -28 4
0 25 -16 45 -36 32 -31 40 -34 58 -25 12 7 28 23 37 36 9 14 21 25 26 25 6 0
27 12 47 28 50 37 64 46 161 92 47 22 97 47 112 55 15 8 56 19 90 25 35 7 73
17 86 23 l22 10 0 410 0 409 -39 39 -39 39 -3008 0 c-2829 -1 -3010 -2 -3029
-18z m1670 -1147 l0 -360 -400 -3 -400 -2 3 352 c1 194 4 359 7 366 3 10 88
12 397 10 l393 -3 0 -360z m1755 0 l0 -365 -395 0 -395 0 0 365 0 365 395 0
395 0 0 -365z m-1755 -1800 l0 -360 -393 -3 c-309 -2 -394 0 -397 10 -3 7 -6
172 -7 366 l-3 352 400 -2 400 -3 0 -360z"></path>
<path d="M4645 3194 c-28 -4 -79 -25 -115 -46 -8 -4 -28 -15 -45 -22 -92 -44
-198 -206 -216 -333 -9 -67 -1 -185 17 -250 5 -17 2 -23 -10 -23 -8 0 -36 -19
-61 -43 l-45 -44 0 -296 0 -297 630 0 630 0 2 193 3 192 137 3 138 3 2 -193 3
-193 628 -3 627 -2 0 296 0 296 -37 37 c-21 20 -48 43 -61 51 -21 13 -22 18
-13 43 6 16 11 48 11 72 0 24 5 47 10 50 12 8 13 62 1 69 -4 3 -11 29 -14 58
-8 78 -64 182 -134 250 -32 31 -69 62 -83 67 -14 6 -32 15 -40 20 -73 41 -94
46 -210 46 -65 0 -127 -5 -141 -11 -147 -68 -137 -61 -409 -331 -146 -145
-270 -263 -275 -263 -6 0 -123 113 -261 251 -138 138 -261 257 -275 264 -13 8
-49 26 -79 40 -30 15 -64 32 -75 38 -21 11 -189 18 -240 11z m190 -306 c23
-12 355 -339 355 -350 0 -5 -117 -8 -261 -8 l-260 0 -52 49 -52 50 0 85 c0 83
1 86 35 121 39 41 62 55 105 66 34 8 100 2 130 -13z m1655 -8 c14 -10 39 -32
55 -50 29 -30 30 -36 30 -116 l0 -85 -52 -50 -52 -49 -260 0 c-144 0 -261 3
-261 8 0 13 334 338 360 350 57 25 137 22 180 -8z"></path>
<path d="M4365 1538 c-3 -13 -4 -346 -3 -741 l3 -718 42 -40 42 -39 491 0 490
0 0 665 c0 503 -3 665 -12 665 -6 0 -71 -58 -144 -130 l-132 -130 -53 0 c-59
0 -108 29 -134 80 -38 74 -10 132 134 275 61 60 111 115 111 122 0 10 -87 13
-415 13 l-415 0 -5 -22z"></path>
<path d="M5944 1549 c-4 -6 42 -61 108 -128 123 -124 148 -161 148 -223 0 -32
-7 -46 -45 -83 -40 -40 -49 -45 -90 -45 -25 0 -55 6 -68 12 -12 7 -77 66 -143
132 -70 68 -127 116 -133 112 -8 -5 -11 -195 -11 -667 l0 -659 490 0 490 0 40
36 c22 20 40 45 40 55 0 10 5 21 10 24 16 10 14 1417 -2 1433 -16 16 -824 17
-834 1z"></path>
</g>
</svg>