 <svg version="1.0" xmlns="http://www.w3.org/2000/svg" width="700.000000pt" height="700.000000pt" viewBox="0 0 700.000000 700.000000" preserveAspectRatio="xMidYMid meet">
<g transform="translate(0.000000,700.000000) scale(0.100000,-0.100000)">
<path d="M1235 6985 c-139 -26 -256 -64 -373 -122 -439 -215 -679 -639 -608
-1073 14 -83 45 -188 73 -243 15 -31 15 -31 -49 -42 -102 -17 -204 -94 -249
-190 l-29 -60 0 -613 0 -612 1568 2 1567 3 3 423 2 422 360 0 360 0 2 -422 3
-423 1568 -3 1567 -2 0 613 0 614 -30 61 c-49 97 -154 175 -256 189 -53 7 -53
0 -5 136 19 56 35 127 43 197 46 418 -193 817 -614 1023 -206 102 -401 143
-637 134 -260 -9 -490 -80 -688 -214 -39 -26 -346 -289 -682 -583 -357 -312
-620 -535 -631 -535 -11 0 -274 223 -631 535 -336 294 -643 557 -682 583 -134
91 -263 144 -452 188 -120 28 -384 35 -500 14z m379 -650 c45 -13 99 -37 122
-52 52 -36 864 -745 864 -755 0 -5 -276 -8 -613 -8 -675 0 -672 0 -791 63 -78
41 -148 113 -188 190 -30 57 -32 69 -33 162 0 89 3 107 29 162 32 71 125 166
196 203 124 64 278 77 414 35z m4070 9 c135 -35 259 -134 314 -251 24 -51 27
-70 27 -158 -1 -93 -3 -105 -33 -162 -58 -113 -175 -203 -307 -238 -50 -13
-154 -15 -672 -15 -337 0 -613 3 -613 8 0 9 808 716 859 752 20 14 72 37 116
52 96 32 213 37 309 12z"></path>
<path d="M1538 3393 l-1058 -3 0 -1555 0 -1554 21 -58 c29 -76 95 -145 178
-186 l66 -32 1197 -3 1198 -2 0 1465 c0 1010 -3 1465 -10 1465 -6 0 -84 -64
-173 -143 -536 -473 -490 -442 -667 -442 -112 0 -117 1 -178 34 -160 87 -222
253 -149 397 14 27 54 76 88 109 82 77 537 477 555 488 14 8 10 30 -4 25 -4
-2 -483 -4 -1064 -5z"></path>
<path d="M4386 3391 c-4 -5 0 -13 8 -18 18 -11 473 -411 555 -488 111 -105
144 -213 102 -327 -27 -71 -97 -146 -171 -184 -51 -27 -63 -29 -170 -29 -175
0 -141 -22 -627 407 -111 98 -206 178 -212 178 -8 0 -11 -434 -11 -1465 l0
-1465 1198 2 1197 3 66 32 c83 41 149 110 178 186 l21 58 0 1554 0 1555 -1049
0 c-577 0 -1056 3 -1064 6 -8 3 -18 1 -21 -5z"></path>
</g>
</svg>