<svg version="1.0" xmlns="http://www.w3.org/2000/svg" width="700.000000pt" height="700.000000pt" viewBox="0 0 700.000000 700.000000" preserveAspectRatio="xMidYMid meet">
<g transform="translate(0.000000,700.000000) scale(0.100000,-0.100000)">
<path d="M3395 6860 c-3 -5 -24 -10 -46 -10 -21 0 -47 -4 -57 -8 -196 -95
-196 -95 -295 -191 l-97 -96 -330 -660 c-182 -363 -330 -664 -330 -668 0 -15
-70 -154 -82 -165 -7 -5 -44 -13 -83 -16 -174 -13 -334 -32 -341 -38 -4 -5
-29 -8 -55 -8 -26 0 -51 -4 -54 -10 -3 -5 -35 -10 -70 -10 -35 0 -67 -4 -70
-10 -3 -5 -33 -10 -65 -10 -32 0 -62 -4 -65 -10 -3 -5 -35 -10 -70 -10 -35 0
-67 -4 -70 -10 -3 -5 -35 -10 -71 -10 -36 0 -64 -4 -64 -10 0 -6 -28 -10 -64
-10 -36 0 -68 -4 -71 -10 -3 -5 -35 -10 -70 -10 -35 0 -67 -4 -70 -10 -3 -5
-33 -10 -65 -10 -32 0 -62 -4 -65 -10 -3 -5 -26 -10 -50 -10 -24 0 -47 -4 -50
-10 -3 -5 -19 -10 -36 -10 -16 0 -37 -4 -47 -9 -9 -4 -51 -25 -92 -45 -41 -20
-86 -43 -99 -51 -32 -18 -151 -137 -151 -151 0 -6 -9 -19 -20 -29 -11 -10 -20
-22 -20 -26 0 -5 -11 -25 -25 -45 -14 -20 -25 -47 -25 -60 0 -13 -4 -24 -10
-24 -5 0 -10 -11 -10 -24 0 -14 -4 -28 -10 -31 -5 -3 -10 -21 -10 -40 0 -19
-4 -37 -10 -40 -13 -8 -13 -235 0 -235 6 0 10 -20 10 -44 0 -25 5 -48 10 -51
6 -3 10 -14 10 -23 0 -15 45 -110 85 -181 17 -31 577 -591 590 -591 6 0 146
-136 313 -303 287 -287 302 -304 302 -339 0 -20 -5 -40 -10 -43 -5 -3 -10 -26
-10 -50 0 -24 -4 -47 -10 -50 -5 -3 -10 -30 -10 -60 0 -30 -5 -57 -10 -60 -5
-3 -10 -28 -10 -55 0 -27 -4 -52 -10 -55 -5 -3 -10 -30 -10 -60 0 -30 -5 -57
-10 -60 -5 -3 -10 -30 -10 -60 0 -30 -4 -57 -10 -60 -5 -3 -10 -24 -10 -45 0
-21 -5 -42 -10 -45 -6 -3 -10 -30 -10 -60 0 -30 -5 -57 -10 -60 -6 -4 -11 -28
-10 -53 0 -69 -11 -156 -21 -167 -5 -5 -9 -33 -9 -61 0 -29 -5 -56 -10 -59 -6
-3 -10 -30 -10 -60 0 -30 -5 -57 -10 -60 -6 -3 -10 -24 -10 -45 0 -21 -4 -42
-10 -45 -5 -3 -10 -30 -10 -60 0 -30 -5 -57 -10 -60 -13 -8 -13 -232 0 -240 6
-3 10 -24 10 -45 0 -21 5 -42 10 -45 6 -3 10 -14 10 -24 0 -9 16 -48 35 -87
19 -38 35 -74 35 -79 0 -14 183 -195 196 -195 7 0 17 -7 24 -15 15 -18 150
-85 172 -85 9 0 20 -5 23 -10 3 -6 26 -10 51 -10 24 0 44 -4 44 -10 0 -13 197
-13 205 0 3 6 26 10 50 10 24 0 47 5 50 10 3 6 14 10 24 10 10 0 62 23 117 51
54 29 129 67 166 86 37 19 72 41 79 49 6 8 16 14 22 14 19 0 361 173 370 187
4 7 34 25 65 39 133 61 248 118 264 132 16 13 158 88 303 158 39 19 78 39 87
44 14 8 61 -12 214 -89 108 -55 203 -106 212 -114 16 -13 131 -70 264 -131 31
-14 61 -32 65 -39 4 -7 96 -57 203 -111 107 -54 229 -116 270 -138 167 -90
264 -138 281 -138 10 0 21 -4 24 -10 3 -5 26 -10 50 -10 24 0 47 -5 50 -10 8
-13 192 -13 200 0 3 6 26 10 50 10 24 0 47 5 50 10 3 6 14 10 23 10 22 0 157
67 172 85 7 8 18 15 24 15 14 0 163 149 181 181 45 82 85 167 85 181 0 9 4 20
10 23 5 3 10 24 10 45 0 21 5 42 10 45 6 4 10 55 10 120 0 65 -4 116 -10 120
-5 3 -10 30 -10 60 0 30 -4 57 -10 60 -5 3 -10 24 -10 45 0 21 -4 42 -10 45
-5 3 -10 30 -10 60 0 30 -4 57 -10 60 -5 3 -10 30 -10 59 0 28 -4 56 -9 61
-10 11 -20 95 -20 167 0 25 -5 49 -11 53 -5 3 -10 30 -10 60 0 30 -4 57 -10
60 -5 3 -10 24 -10 45 0 21 -4 42 -10 45 -5 3 -10 30 -10 60 0 30 -4 57 -10
60 -5 3 -10 30 -10 60 0 30 -4 57 -10 60 -5 3 -10 28 -10 55 0 27 -4 52 -10
55 -5 3 -10 30 -10 60 0 30 -4 57 -10 60 -5 3 -10 26 -10 50 0 24 -4 47 -10
50 -5 3 -10 23 -10 43 0 35 15 52 303 340 166 166 307 302 312 302 13 0 573
560 590 591 40 71 85 166 85 181 0 9 4 20 10 23 6 3 10 26 10 51 0 24 5 44 10
44 6 0 10 45 10 114 0 66 -4 117 -10 121 -5 3 -10 21 -10 40 0 19 -4 37 -10
40 -5 3 -10 15 -10 26 0 10 -4 27 -9 37 -5 9 -16 33 -25 52 -24 50 -40 77 -59
98 -10 10 -17 23 -17 28 0 13 -113 124 -126 124 -6 0 -20 10 -32 23 -12 13
-54 38 -94 56 -40 19 -81 37 -90 42 -10 5 -31 9 -47 9 -17 0 -33 5 -36 10 -3
6 -26 10 -50 10 -24 0 -47 5 -50 10 -3 6 -33 10 -65 10 -32 0 -62 5 -65 10 -3
6 -35 10 -70 10 -35 0 -67 5 -70 10 -3 6 -35 10 -71 10 -36 0 -64 4 -64 10 0
6 -28 10 -64 10 -36 0 -68 5 -71 10 -3 6 -35 10 -70 10 -35 0 -67 5 -70 10 -3
6 -33 10 -65 10 -32 0 -62 5 -65 10 -3 6 -35 10 -70 10 -35 0 -67 5 -70 10 -3
6 -28 10 -54 10 -26 0 -51 3 -55 8 -7 6 -167 25 -341 38 -38 3 -76 11 -83 16
-12 11 -82 150 -82 165 0 4 -148 305 -330 668 l-330 660 -97 96 c-99 96 -99
96 -295 191 -10 4 -36 8 -57 8 -22 0 -43 5 -46 10 -3 6 -50 10 -105 10 -55 0
-102 -4 -105 -10z m239 -434 c95 -48 130 -86 183 -196 99 -208 118 -245 125
-248 4 -2 8 -11 8 -20 0 -19 108 -242 344 -707 50 -99 103 -207 118 -240 35
-75 77 -149 89 -153 5 -2 9 -9 9 -16 0 -13 77 -92 108 -110 10 -6 31 -20 46
-30 35 -25 120 -44 236 -53 36 -2 69 -9 75 -14 5 -5 35 -9 66 -9 32 0 61 -4
64 -10 3 -5 35 -10 70 -10 35 0 67 -4 70 -10 3 -5 33 -10 65 -10 32 0 62 -4
65 -10 3 -5 35 -10 70 -10 35 0 67 -4 70 -10 3 -5 33 -10 65 -10 32 0 62 -4
65 -10 3 -5 35 -10 70 -10 35 0 67 -4 70 -10 3 -5 35 -10 70 -10 35 0 67 -4
70 -10 3 -5 33 -10 65 -10 32 0 62 -4 65 -10 3 -5 30 -10 60 -10 30 0 57 -4
60 -10 3 -5 33 -10 65 -10 32 0 62 -4 65 -10 3 -5 19 -10 34 -10 15 0 52 -11
82 -25 77 -36 83 -40 94 -61 6 -10 21 -35 33 -54 12 -19 22 -45 22 -57 0 -12
5 -25 10 -28 6 -3 10 -41 10 -84 0 -133 -22 -166 -283 -428 -122 -123 -226
-223 -232 -223 -12 0 -701 -687 -718 -717 -7 -11 -22 -35 -34 -54 -13 -19 -23
-46 -23 -61 0 -15 -4 -30 -10 -33 -6 -4 -10 -63 -10 -145 0 -82 4 -141 10
-145 6 -3 10 -31 10 -61 0 -30 5 -54 10 -54 6 0 10 -24 10 -54 0 -30 5 -58 10
-61 6 -3 10 -30 10 -60 0 -30 5 -57 10 -60 6 -3 10 -26 10 -50 0 -24 5 -47 10
-50 6 -3 10 -28 10 -55 0 -27 5 -52 10 -55 6 -3 10 -30 10 -60 0 -30 5 -57 10
-60 6 -3 10 -28 10 -55 0 -27 5 -52 10 -55 6 -3 10 -28 10 -56 0 -27 4 -57 9
-67 8 -15 16 -69 37 -257 3 -27 10 -54 15 -60 5 -5 9 -33 9 -61 0 -29 5 -56
10 -59 6 -3 10 -46 10 -95 0 -71 -4 -97 -20 -125 -11 -20 -20 -41 -20 -48 -1
-24 -64 -81 -132 -118 -63 -35 -79 -39 -139 -39 -50 0 -78 5 -104 20 -20 11
-44 20 -54 20 -10 0 -24 7 -31 15 -11 13 -69 43 -290 148 -36 17 -77 41 -92
53 -29 23 -348 184 -365 184 -6 0 -16 6 -22 14 -7 8 -42 30 -79 49 -37 19
-107 55 -155 80 -49 25 -96 51 -105 59 -9 8 -42 26 -72 40 -30 14 -84 40 -120
57 -36 17 -77 31 -92 31 -15 0 -30 5 -33 10 -8 13 -202 13 -210 0 -3 -5 -18
-10 -33 -10 -15 0 -56 -14 -92 -31 -36 -17 -90 -43 -120 -57 -30 -14 -63 -32
-72 -40 -9 -8 -56 -34 -105 -59 -48 -25 -118 -61 -155 -80 -37 -19 -72 -41
-79 -49 -6 -8 -16 -14 -22 -14 -18 0 -337 -161 -365 -184 -15 -12 -45 -30 -67
-41 -139 -63 -304 -147 -315 -160 -7 -8 -21 -15 -31 -15 -10 0 -34 -9 -54 -20
-59 -33 -153 -28 -234 13 -63 31 -140 99 -141 124 0 7 -9 28 -20 48 -16 28
-20 54 -20 125 0 49 5 92 10 95 6 3 10 30 10 59 0 28 4 56 9 61 5 6 12 33 15
60 21 188 29 242 37 257 5 10 9 40 9 67 0 28 4 53 10 56 5 3 10 28 10 55 0 27
4 52 10 55 5 3 10 30 10 60 0 30 5 57 10 60 6 3 10 28 10 55 0 27 5 52 10 55
6 3 10 26 10 50 0 24 4 47 10 50 5 3 10 30 10 60 0 30 5 57 10 60 6 3 10 31
10 61 0 30 5 54 10 54 6 0 10 24 10 54 0 30 4 58 10 61 13 8 13 282 0 290 -5
3 -10 18 -10 33 0 15 -10 42 -23 61 -12 19 -27 43 -34 54 -17 30 -706 717
-718 717 -6 0 -110 100 -232 223 -261 262 -283 295 -283 428 0 43 4 81 10 84
5 3 10 16 10 28 0 12 10 38 22 57 12 19 27 44 33 54 11 21 17 25 94 61 30 14
67 25 82 25 15 0 31 5 34 10 3 6 33 10 65 10 32 0 62 5 65 10 3 6 30 10 60 10
30 0 57 5 60 10 3 6 33 10 65 10 32 0 62 5 65 10 3 6 35 10 70 10 35 0 67 5
70 10 3 6 35 10 70 10 35 0 67 5 70 10 3 6 33 10 65 10 32 0 62 5 65 10 3 6
35 10 70 10 35 0 67 5 70 10 3 6 33 10 65 10 32 0 62 5 65 10 3 6 35 10 70 10
35 0 67 5 70 10 3 6 32 10 64 10 31 0 61 4 66 9 6 5 39 12 75 14 36 3 79 8 95
11 17 3 48 9 70 12 41 7 84 29 98 51 4 7 13 13 20 13 13 0 107 90 107 103 0 4
9 17 19 29 11 11 36 55 56 97 49 101 200 405 252 506 105 203 233 472 233 487
0 9 4 18 8 20 7 3 26 40 125 248 52 108 88 148 178 195 54 27 75 33 135 34 61
1 79 -3 138 -33z"></path>
<path d="M3455 4740 c-3 -5 -43 -10 -89 -10 -83 0 -143 -19 -194 -62 -9 -8
-42 -26 -72 -41 -31 -14 -69 -40 -85 -57 -17 -18 -48 -41 -70 -51 -63 -32 -84
-45 -113 -70 -33 -30 -67 -49 -86 -49 -7 0 -31 -17 -53 -38 -21 -21 -54 -45
-73 -54 -44 -21 -82 -61 -109 -115 -11 -23 -25 -44 -31 -48 -6 -4 -10 -87 -10
-221 l0 -215 34 -53 c19 -30 52 -67 73 -82 21 -16 40 -31 43 -34 3 -3 15 -11
27 -17 27 -15 179 -17 188 -3 3 6 15 10 26 10 22 0 53 16 85 43 12 10 34 19
50 20 l29 2 3 -532 2 -533 -179 0 c-109 0 -182 -4 -186 -10 -3 -5 -16 -10 -29
-10 -43 0 -146 -135 -146 -191 0 -10 -4 -21 -10 -24 -6 -4 -10 -77 -10 -185 0
-108 4 -181 10 -185 6 -3 10 -15 10 -26 0 -10 6 -29 12 -42 20 -35 110 -127
140 -143 42 -22 1670 -21 1688 1 7 8 18 15 24 15 14 0 75 64 94 97 6 13 12 31
12 41 0 10 6 24 13 31 9 9 12 67 12 221 0 154 -3 212 -12 222 -7 6 -13 20 -13
30 0 42 -81 138 -116 138 -13 0 -26 5 -29 10 -4 6 -70 10 -166 10 l-159 0 0
1005 c0 1057 2 1019 -44 1072 -10 12 -24 32 -30 45 -6 12 -34 34 -61 49 -43
23 -63 27 -137 28 -48 1 -90 6 -93 11 -3 6 -42 10 -85 10 -43 0 -82 -4 -85
-10z m285 -1362 c0 -983 1 -1073 17 -1090 15 -16 35 -18 228 -18 151 0 214 -3
223 -12 7 -7 12 -29 12 -49 0 -21 5 -41 10 -44 13 -8 13 -92 0 -100 -5 -3 -10
-21 -10 -39 0 -17 -5 -37 -12 -44 -9 -9 -185 -12 -730 -12 l-718 0 0 34 c0 19
-4 38 -10 41 -5 3 -10 37 -10 75 0 38 5 72 10 75 6 3 10 22 10 41 l0 34 252 0
c220 0 254 2 270 17 17 15 18 55 18 858 0 641 -3 844 -12 853 -14 14 -90 16
-116 3 -9 -5 -33 -16 -52 -25 -50 -24 -77 -40 -98 -59 -10 -10 -32 -17 -49
-17 -19 0 -38 -9 -54 -26 -13 -14 -40 -32 -59 -41 -19 -9 -45 -26 -58 -37 -18
-16 -27 -18 -40 -10 -14 9 -17 31 -20 132 -2 114 -1 123 20 148 13 14 45 38
72 52 76 42 86 48 114 74 15 14 43 32 63 41 20 9 42 23 49 32 7 8 18 15 25 15
7 0 18 7 25 15 7 9 32 25 55 35 23 10 48 26 55 35 7 8 17 15 23 15 6 0 21 10
33 21 48 45 61 47 267 48 l197 1 0 -1072z"></path>
</g>
</svg>