<svg version="1.1" id="Capa_1" xmlns="http://www.w3.org/2000/svg" xmlns:xlink="http://www.w3.org/1999/xlink" viewBox="5 7 34 37" height="200px"
	>
<path d="M13.576,18.161c-0.248,0-0.498-0.059-0.725-0.179l-1.835-0.965l-1.835,0.965c-0.521,0.277-1.16,0.231-1.641-0.119
	c-0.479-0.349-0.72-0.939-0.62-1.523l0.351-2.043L5.788,12.85c-0.425-0.414-0.578-1.032-0.395-1.596
	c0.184-0.564,0.67-0.975,1.258-1.061l2.052-0.3l0.915-1.858c0.527-1.065,2.269-1.065,2.795,0l0.917,1.858l2.052,0.3
	c0.588,0.085,1.074,0.496,1.258,1.061s0.03,1.182-0.395,1.596l-1.484,1.447l0.351,2.043c0.1,0.584-0.141,1.175-0.62,1.523
	C14.22,18.061,13.898,18.161,13.576,18.161z"/>
<path d="M37.053,14.222H19.627c-0.861,0-1.558-0.697-1.558-1.558c0-0.861,0.697-1.558,1.558-1.558h17.426
	c0.86,0,1.558,0.697,1.558,1.558C38.61,13.525,37.912,14.222,37.053,14.222z"/>
<path d="M13.576,30.626c-0.248,0-0.498-0.06-0.725-0.181l-1.835-0.963l-1.835,0.963c-0.521,0.279-1.16,0.233-1.641-0.117
	c-0.479-0.35-0.72-0.939-0.62-1.523l0.351-2.043l-1.483-1.447c-0.425-0.414-0.578-1.031-0.395-1.596
	c0.184-0.564,0.67-0.976,1.258-1.061l2.052-0.3L9.618,20.5c0.527-1.065,2.269-1.065,2.795,0l0.917,1.858l2.052,0.3
	c0.588,0.085,1.074,0.496,1.258,1.061c0.184,0.564,0.03,1.182-0.395,1.596l-1.484,1.447l0.351,2.043
	c0.1,0.584-0.141,1.176-0.62,1.523C14.22,30.526,13.898,30.626,13.576,30.626z"/>
<path d="M37.053,26.686H19.627c-0.861,0-1.558-0.697-1.558-1.558c0-0.861,0.697-1.559,1.558-1.559h17.426
	c0.86,0,1.558,0.697,1.558,1.559C38.61,25.989,37.912,26.686,37.053,26.686z"/>
<path d="M13.576,43.091c-0.248,0-0.498-0.06-0.725-0.181l-1.835-0.963l-1.835,0.963c-0.521,0.277-1.16,0.231-1.641-0.118
	c-0.479-0.349-0.72-0.939-0.62-1.523l0.351-2.043L5.788,37.78c-0.425-0.414-0.578-1.031-0.395-1.597
	c0.184-0.563,0.67-0.975,1.258-1.062l2.052-0.299l0.915-1.857c0.527-1.064,2.269-1.064,2.795,0l0.917,1.857l2.052,0.299
	c0.588,0.086,1.074,0.496,1.258,1.062s0.03,1.183-0.395,1.597l-1.484,1.446l0.351,2.043c0.1,0.584-0.141,1.175-0.62,1.523
	C14.22,42.991,13.898,43.091,13.576,43.091z"/>
<path d="M37.053,39.151H19.627c-0.861,0-1.558-0.697-1.558-1.558s0.697-1.558,1.558-1.558h17.426c0.86,0,1.558,0.697,1.558,1.558
	S37.912,39.151,37.053,39.151z"/>
</svg>
