<svg version="1.0" xmlns="http://www.w3.org/2000/svg" width="700.000000pt" height="700.000000pt" viewBox="0 0 700.000000 700.000000" preserveAspectRatio="xMidYMid meet">
<g transform="translate(0.000000,700.000000) scale(0.100000,-0.100000)">
<path d="M3395 6850 c-3 -5 -26 -10 -50 -10 -24 0 -47 -5 -50 -10 -4 -6 -14
-10 -23 -8 -10 1 -53 -15 -97 -37 -64 -31 -101 -60 -182 -140 -57 -55 -103
-104 -103 -110 0 -14 -173 -359 -182 -363 -4 -2 -8 -12 -8 -23 0 -10 -4 -19
-10 -19 -5 0 -10 -9 -10 -19 0 -11 -3 -21 -7 -23 -5 -1 -18 -23 -29 -48 -91
-190 -200 -406 -206 -408 -4 -2 -8 -12 -8 -23 0 -10 -4 -19 -10 -19 -5 0 -10
-9 -10 -19 0 -11 -3 -21 -7 -23 -5 -1 -18 -23 -30 -48 -11 -25 -46 -97 -77
-160 -31 -63 -56 -120 -56 -127 0 -14 -43 -97 -52 -101 -5 -2 -8 -10 -8 -19 0
-31 -27 -43 -99 -43 -38 0 -73 -4 -76 -10 -3 -5 -35 -10 -71 -10 -36 0 -64 -4
-64 -10 0 -6 -28 -10 -64 -10 -36 0 -68 -4 -71 -10 -3 -5 -30 -10 -60 -10 -30
0 -57 -4 -60 -10 -3 -5 -33 -10 -65 -10 -32 0 -62 -4 -65 -10 -3 -5 -35 -10
-70 -10 -35 0 -67 -5 -70 -11 -4 -6 -31 -9 -61 -8 -29 2 -57 0 -61 -4 -3 -4
-35 -7 -69 -7 -35 0 -66 -4 -69 -10 -3 -5 -35 -10 -71 -10 -36 0 -64 -4 -64
-10 0 -6 -28 -10 -64 -10 -36 0 -68 -4 -71 -10 -3 -5 -35 -10 -70 -10 -35 0
-67 -4 -70 -10 -3 -5 -26 -10 -51 -10 -24 0 -44 -4 -44 -10 0 -5 -15 -10 -34
-10 -19 0 -38 -4 -41 -10 -3 -5 -14 -10 -23 -10 -22 0 -157 -67 -172 -85 -7
-8 -17 -15 -23 -15 -15 0 -127 -111 -127 -126 0 -6 -9 -19 -20 -29 -11 -10
-20 -24 -20 -30 0 -7 -7 -18 -15 -25 -19 -16 -45 -68 -45 -91 0 -10 -5 -21
-10 -24 -6 -3 -10 -17 -10 -30 0 -13 -4 -27 -10 -30 -5 -3 -10 -22 -10 -41 0
-19 -4 -34 -10 -34 -6 0 -10 -45 -10 -115 0 -70 4 -115 10 -115 6 0 10 -20 10
-44 0 -25 5 -48 10 -51 6 -3 10 -14 10 -24 0 -21 22 -71 33 -71 4 0 7 -9 7
-20 0 -11 5 -20 10 -20 6 0 10 -8 10 -18 0 -10 9 -24 20 -32 11 -8 20 -20 20
-27 0 -14 555 -573 570 -573 5 0 147 -137 315 -305 l305 -306 0 -44 c0 -24 -5
-47 -10 -50 -5 -3 -10 -26 -10 -51 0 -24 -4 -44 -10 -44 -5 0 -10 -24 -10 -53
0 -30 -3 -57 -7 -61 -7 -7 -13 -53 -39 -281 -3 -27 -10 -54 -15 -60 -5 -5 -9
-28 -9 -51 0 -24 -5 -46 -10 -49 -6 -3 -10 -31 -10 -61 0 -30 -4 -54 -10 -54
-5 0 -10 -24 -10 -54 0 -30 -5 -58 -10 -61 -5 -3 -10 -30 -10 -60 0 -30 -4
-57 -10 -60 -5 -3 -10 -31 -10 -61 0 -30 -4 -54 -10 -54 -5 0 -10 -24 -10 -54
0 -30 -5 -58 -10 -61 -6 -3 -10 -26 -10 -50 0 -24 -4 -47 -10 -50 -5 -3 -10
-31 -10 -61 0 -30 -4 -54 -10 -54 -13 0 -13 -217 0 -225 6 -3 10 -26 10 -50 0
-24 5 -47 10 -50 6 -3 10 -17 10 -31 0 -13 5 -24 10 -24 6 0 10 -9 10 -20 0
-11 5 -20 10 -20 6 0 10 -9 10 -20 0 -11 3 -20 8 -20 4 0 13 -15 21 -32 14
-35 188 -218 206 -218 6 0 17 -9 25 -20 8 -11 20 -20 27 -20 7 0 32 -11 57
-25 25 -14 54 -25 65 -25 11 0 23 -4 26 -10 3 -5 26 -10 50 -10 24 0 47 -5 50
-10 8 -12 207 -13 220 -1 6 5 30 12 55 15 25 3 52 7 60 9 26 5 348 167 359
180 5 7 26 19 46 27 19 7 35 17 35 22 0 4 5 8 11 8 15 0 297 139 304 150 3 4
75 43 161 86 86 42 161 82 168 89 6 6 100 55 208 109 l198 98 197 -98 c109
-54 203 -103 209 -109 7 -7 82 -47 168 -89 86 -43 158 -82 161 -86 7 -11 289
-150 304 -150 6 0 11 -4 11 -8 0 -5 16 -15 35 -22 20 -8 41 -20 46 -27 11 -13
333 -175 359 -180 8 -2 35 -6 60 -9 25 -3 49 -10 55 -15 13 -12 212 -11 220 1
3 6 26 10 50 10 24 0 47 5 50 10 3 6 16 10 29 10 12 0 31 7 42 15 10 8 27 15
37 15 9 0 17 5 17 10 0 6 8 10 18 10 10 0 24 9 32 20 8 11 19 20 25 20 14 0
175 162 175 176 0 6 9 19 20 29 11 10 20 24 20 32 0 7 5 13 10 13 6 0 10 9 10
20 0 11 5 20 10 20 6 0 10 9 10 20 0 11 5 20 10 20 6 0 10 11 10 24 0 14 5 28
10 31 6 3 10 26 10 50 0 24 5 47 10 50 6 4 10 53 10 116 0 66 -4 109 -10 109
-5 0 -10 24 -10 54 0 30 -4 58 -10 61 -5 3 -10 26 -10 50 0 24 -4 47 -10 50
-5 3 -10 31 -10 61 0 30 -4 54 -10 54 -5 0 -10 24 -10 54 0 30 -4 58 -10 61
-5 3 -10 30 -10 60 0 30 -4 57 -10 60 -5 3 -10 31 -10 61 0 30 -4 54 -10 54
-5 0 -10 24 -10 54 0 30 -4 58 -10 61 -5 3 -10 25 -10 49 0 23 -4 46 -9 51 -5
6 -12 33 -15 60 -26 228 -32 274 -38 281 -5 4 -8 31 -8 61 0 29 -4 53 -10 53
-5 0 -10 20 -10 44 0 25 -4 48 -10 51 -5 3 -10 26 -10 50 l0 44 293 293 c161
161 310 306 332 323 57 42 565 554 565 568 0 7 9 19 20 27 11 8 20 22 20 32 0
10 5 18 10 18 6 0 10 9 10 20 0 11 3 20 8 20 10 0 32 50 32 71 0 10 5 21 10
24 6 3 10 26 10 51 0 24 5 44 10 44 6 0 10 45 10 115 0 70 -4 115 -10 115 -5
0 -10 15 -10 34 0 19 -4 38 -10 41 -5 3 -10 17 -10 30 0 13 -4 27 -10 30 -5 3
-10 14 -10 24 0 23 -26 75 -45 91 -8 7 -15 18 -15 25 0 6 -9 20 -20 30 -11 10
-20 23 -20 29 0 15 -92 106 -106 106 -6 0 -21 11 -34 25 -26 27 -155 95 -182
95 -9 0 -20 5 -23 10 -3 6 -22 10 -41 10 -19 0 -34 5 -34 10 0 6 -20 10 -44
10 -25 0 -48 5 -51 10 -3 6 -35 10 -70 10 -35 0 -67 5 -70 10 -3 6 -35 10 -71
10 -36 0 -64 4 -64 10 0 6 -28 10 -64 10 -36 0 -68 5 -71 10 -3 6 -34 10 -69
10 -34 0 -66 3 -69 7 -4 4 -32 6 -61 4 -30 -1 -57 2 -61 8 -3 6 -35 11 -70 11
-35 0 -67 5 -70 10 -3 6 -33 10 -65 10 -32 0 -62 5 -65 10 -3 6 -30 10 -60 10
-30 0 -57 5 -60 10 -3 6 -35 10 -71 10 -36 0 -64 4 -64 10 0 6 -28 10 -64 10
-36 0 -68 5 -71 10 -3 6 -38 10 -76 10 -72 0 -99 12 -99 43 0 9 -3 17 -7 19
-10 4 -53 87 -53 101 0 7 -25 64 -56 127 -31 63 -66 135 -77 160 -12 25 -25
47 -29 48 -5 2 -8 12 -8 23 0 10 -4 19 -10 19 -5 0 -10 9 -10 19 0 11 -4 21
-8 23 -6 2 -115 218 -206 408 -11 25 -24 47 -28 48 -5 2 -8 12 -8 23 0 10 -4
19 -10 19 -5 0 -10 9 -10 19 0 11 -4 21 -8 23 -9 4 -182 349 -182 363 0 6 -46
55 -102 110 -81 79 -120 109 -179 138 -41 20 -85 37 -97 37 -11 0 -24 5 -27
10 -3 6 -26 10 -50 10 -24 0 -47 5 -50 10 -3 6 -50 10 -105 10 -55 0 -102 -4
-105 -10z m270 -2000 c3 -6 51 -10 107 -10 97 0 101 -1 124 -27 l24 -28 0
-1262 0 -1263 263 0 c239 0 265 -2 279 -17 21 -24 32 -62 29 -99 -1 -18 2 -35
8 -39 13 -8 15 -171 2 -179 -5 -3 -11 -30 -13 -61 -3 -34 -12 -62 -23 -75 -18
-20 -29 -20 -896 -20 l-878 0 -26 25 c-17 18 -25 37 -25 60 0 19 -4 35 -10 35
-6 0 -10 48 -10 125 0 77 4 125 10 125 6 0 10 16 10 35 0 25 8 44 25 60 l24
25 296 0 295 0 0 970 c0 789 -2 970 -13 970 -18 0 -67 -24 -67 -32 0 -5 -7 -8
-15 -8 -14 0 -62 -26 -75 -40 -3 -3 -36 -21 -75 -40 -38 -18 -78 -40 -87 -48
-26 -21 -190 -102 -208 -102 -9 0 -21 -5 -26 -10 -15 -15 -63 12 -80 45 -17
33 -21 355 -4 355 6 0 10 7 10 16 0 19 24 44 42 44 8 0 20 9 28 20 8 11 22 20
31 20 9 0 19 7 23 15 3 8 16 20 28 26 36 16 66 34 86 52 10 10 23 17 29 17 6
0 16 7 23 15 7 9 32 25 55 35 23 10 48 26 55 35 7 8 18 15 25 15 6 0 20 9 30
20 10 11 23 20 30 20 7 0 20 9 30 20 10 11 23 20 28 20 6 0 19 7 29 17 21 18
44 33 106 63 24 11 46 27 49 35 4 12 26 15 98 15 52 0 97 4 100 10 3 6 26 10
50 10 24 0 47 -4 50 -10z"></path>
</g>
</svg>